<?xml version="1.0" encoding="UTF-8"?><svg xmlns="http://www.w3.org/2000/svg" xmlns:xlink="http://www.w3.org/1999/xlink" fill-opacity="1" color-rendering="auto" color-interpolation="auto" text-rendering="auto" stroke="black" stroke-linecap="square" width="451" stroke-miterlimit="10" shape-rendering="auto" stroke-opacity="1" fill="black" stroke-dasharray="none" font-weight="normal" stroke-width="1" height="282" font-family="'Dialog'" font-style="normal" stroke-linejoin="miter" font-size="12px" stroke-dashoffset="0" image-rendering="auto">
  <!--Generated by ySVG 2.5-->
  <defs id="genericDefs"/>
  <g>
    <defs id="defs1">
      <clipPath clipPathUnits="userSpaceOnUse" id="clipPath1">
        <path d="M0 0 L451 0 L451 282 L0 282 L0 0 Z"/>
      </clipPath>
      <clipPath clipPathUnits="userSpaceOnUse" id="clipPath2">
        <path d="M254 245 L705 245 L705 527 L254 527 L254 245 Z"/>
      </clipPath>
      <clipPath clipPathUnits="userSpaceOnUse" id="clipPath3">
        <path d="M-19.5992 190.0398 L-19.5992 -260.9602 L262.4008 -260.9602 L262.4008 190.0398 L-19.5992 190.0398 Z"/>
      </clipPath>
      <clipPath clipPathUnits="userSpaceOnUse" id="clipPath4">
        <path d="M-92.5262 58.5131 L-92.5262 -392.4868 L189.4738 -392.4868 L189.4738 58.5131 L-92.5262 58.5131 Z"/>
      </clipPath>
      <clipPath clipPathUnits="userSpaceOnUse" id="clipPath5">
        <path d="M-126.1104 37.5131 L-126.1104 -413.4868 L155.8896 -413.4868 L155.8896 37.5131 L-126.1104 37.5131 Z"/>
      </clipPath>
      <clipPath clipPathUnits="userSpaceOnUse" id="clipPath6">
        <path d="M-19.5992 58.5131 L-19.5992 -392.4868 L262.4008 -392.4868 L262.4008 58.5131 L-19.5992 58.5131 Z"/>
      </clipPath>
      <clipPath clipPathUnits="userSpaceOnUse" id="clipPath7">
        <path d="M-19.5992 336.1743 L-19.5992 -114.8257 L262.4008 -114.8257 L262.4008 336.1743 L-19.5992 336.1743 Z"/>
      </clipPath>
    </defs>
    <g fill="white" text-rendering="geometricPrecision" shape-rendering="geometricPrecision" transform="translate(-254,-245)" stroke="white">
      <rect x="254" width="451" height="282" y="245" clip-path="url(#clipPath2)" stroke="none"/>
    </g>
    <g text-rendering="geometricPrecision" stroke-miterlimit="1.45" stroke-dasharray="6,2" shape-rendering="geometricPrecision" transform="matrix(1,0,0,1,-254,-245)" stroke-linecap="butt">
      <rect x="422.4216" y="260.5992" clip-path="url(#clipPath2)" fill="none" width="135.4683" rx="4" ry="4" height="238.6834"/>
    </g>
    <g font-size="10px" stroke-linecap="butt" transform="matrix(0,1,-1,0,190.0398,19.5992)" text-rendering="geometricPrecision" font-family="'Open Sans'" shape-rendering="geometricPrecision" font-weight="bold" stroke-miterlimit="1.45">
      <text x="2" xml:space="preserve" y="12.6885" clip-path="url(#clipPath3)" stroke="none">anvender</text>
    </g>
    <g text-rendering="geometricPrecision" stroke-miterlimit="1.45" stroke-dasharray="6,2" shape-rendering="geometricPrecision" transform="matrix(1,0,0,1,-254,-245)" stroke-linecap="butt">
      <rect x="290.895" y="333.5262" clip-path="url(#clipPath2)" fill="none" width="121.0023" rx="4" ry="4" height="165.7563"/>
    </g>
    <g font-size="10px" stroke-linecap="butt" transform="matrix(0,1,-1,0,58.5131,92.5262)" text-rendering="geometricPrecision" font-family="'Open Sans'" shape-rendering="geometricPrecision" font-weight="bold" stroke-miterlimit="1.45">
      <text x="2" xml:space="preserve" y="12.6885" clip-path="url(#clipPath4)" stroke="none">ejer</text>
    </g>
    <g text-rendering="geometricPrecision" stroke-miterlimit="1.45" stroke-dasharray="6,2" shape-rendering="geometricPrecision" transform="matrix(1,0,0,1,-254,-245)" stroke-linecap="butt">
      <rect x="269.895" y="367.1104" clip-path="url(#clipPath2)" fill="none" width="419.6635" rx="4" ry="4" height="144.4726"/>
    </g>
    <g font-size="10px" stroke-linecap="butt" transform="matrix(0,1,-1,0,37.5131,126.1104)" text-rendering="geometricPrecision" font-family="'Open Sans'" shape-rendering="geometricPrecision" font-weight="bold" stroke-miterlimit="1.45">
      <text x="2" xml:space="preserve" y="12.6885" clip-path="url(#clipPath5)" stroke="none">platform</text>
    </g>
    <g text-rendering="geometricPrecision" stroke-miterlimit="1.45" stroke-dasharray="6,2" shape-rendering="geometricPrecision" transform="matrix(1,0,0,1,-254,-245)" stroke-linecap="butt">
      <rect x="290.895" y="260.5992" clip-path="url(#clipPath2)" fill="none" width="121.0023" rx="4" ry="4" height="63.4878"/>
    </g>
    <g font-size="10px" stroke-linecap="butt" transform="matrix(0,1,-1,0,58.5131,19.5992)" text-rendering="geometricPrecision" font-family="'Open Sans'" shape-rendering="geometricPrecision" font-weight="bold" stroke-miterlimit="1.45">
      <text x="2" xml:space="preserve" y="12.6885" clip-path="url(#clipPath6)" stroke="none">registrant</text>
    </g>
    <g text-rendering="geometricPrecision" stroke-miterlimit="1.45" shape-rendering="geometricPrecision" transform="matrix(1,0,0,1,-254,-245)" stroke-linecap="butt">
      <rect x="319.7448" y="380.2476" clip-path="url(#clipPath2)" fill="none" width="75" rx="4" ry="4" height="30"/>
      <text x="323.5241" y="399.9029" clip-path="url(#clipPath2)" font-family="'Open Sans'" font-style="italic" stroke="none" xml:space="preserve">Indberetning</text>
      <rect fill="none" x="319.7448" width="75" height="30" y="277.0163" clip-path="url(#clipPath2)"/>
      <text x="332.1198" xml:space="preserve" y="296.6716" clip-path="url(#clipPath2)" font-family="'Open Sans'" stroke="none">Registrer</text>
      <rect x="443.7313" y="449.1077" clip-path="url(#clipPath2)" fill="none" width="91.315" rx="4" ry="4" height="30"/>
      <text x="451.6017" y="468.763" clip-path="url(#clipPath2)" font-family="'Open Sans'" stroke="none" font-weight="bold" xml:space="preserve">Datasamling</text>
      <rect x="596.6726" y="449.2004" clip-path="url(#clipPath2)" fill="none" width="75" rx="4" ry="4" height="30"/>
      <text x="623.6784" y="468.8557" clip-path="url(#clipPath2)" font-family="'Open Sans'" stroke="none" font-weight="bold" xml:space="preserve">Log</text>
      <rect x="596.6726" y="378.0032" clip-path="url(#clipPath2)" fill="none" width="75" rx="4" ry="4" height="30"/>
      <text x="608.5349" y="397.6585" clip-path="url(#clipPath2)" font-family="'Open Sans'" stroke="none" font-weight="bold" xml:space="preserve">Overblik</text>
      <rect x="568.5562" y="260.5992" clip-path="url(#clipPath2)" fill="none" width="121.0023" stroke-dasharray="6,2" rx="4" ry="4" height="63.4878"/>
    </g>
    <g font-size="10px" stroke-linecap="butt" transform="matrix(0,1,-1,0,336.1743,19.5992)" text-rendering="geometricPrecision" font-family="'Open Sans'" shape-rendering="geometricPrecision" font-weight="bold" stroke-miterlimit="1.45">
      <text x="2" xml:space="preserve" y="12.6885" clip-path="url(#clipPath7)" stroke="none">subjekt</text>
    </g>
    <g text-rendering="geometricPrecision" stroke-miterlimit="1.45" shape-rendering="geometricPrecision" transform="matrix(1,0,0,1,-254,-245)" stroke-linecap="butt">
      <rect fill="none" x="596.6726" width="75" height="30" y="277.3431" clip-path="url(#clipPath2)"/>
      <text x="613.6384" y="296.9984" clip-path="url(#clipPath2)" font-family="'Open Sans'" stroke="none" font-weight="bold" xml:space="preserve">Indsigt</text>
      <rect fill="none" x="443.7313" width="89.8437" height="30" y="277.3431" clip-path="url(#clipPath2)"/>
      <text x="465.8719" y="296.9984" clip-path="url(#clipPath2)" font-family="'Open Sans'" stroke="none" font-weight="bold" xml:space="preserve">Anvend</text>
      <rect x="439.5671" y="378.0032" clip-path="url(#clipPath2)" fill="none" width="100.1061" rx="4" ry="4" height="30"/>
      <text x="443.1758" y="397.6585" clip-path="url(#clipPath2)" font-family="'Open Sans'" stroke="none" font-weight="bold" xml:space="preserve">Sammenstilling</text>
      <rect x="311.5873" y="449.2004" clip-path="url(#clipPath2)" fill="none" width="91.315" rx="4" ry="4" height="30"/>
      <text x="319.4577" y="468.8557" clip-path="url(#clipPath2)" font-family="'Open Sans'" stroke="none" font-weight="bold" xml:space="preserve">Datasamling</text>
      <path fill="none" d="M357.2448 380.2518 L357.2448 312.0163" clip-path="url(#clipPath2)"/>
      <path d="M357.2448 308.0163 L351.2448 320.0163 L357.2448 308.0163 L363.2448 320.0163 Z" clip-path="url(#clipPath2)" stroke="none"/>
      <path fill="none" stroke-miterlimit="10" d="M357.2448 308.0163 L351.2448 320.0163 L357.2448 308.0163 L363.2448 320.0163 Z" clip-path="url(#clipPath2)" stroke-linecap="square"/>
      <text x="335.9323" font-size="8px" y="346.7354" clip-path="url(#clipPath2)" font-family="'Open Sans'" stroke="none" xml:space="preserve">skriv</text>
      <path fill="none" d="M634.1725 449.217 L634.1725 413.0173" clip-path="url(#clipPath2)"/>
      <path d="M634.1725 409.0173 L628.1725 421.0173 L634.1725 409.0173 L640.1725 421.0173 Z" clip-path="url(#clipPath2)" stroke="none"/>
      <path fill="none" stroke-miterlimit="10" d="M634.1725 409.0173 L628.1725 421.0173 L634.1725 409.0173 L640.1725 421.0173 Z" clip-path="url(#clipPath2)" stroke-linecap="square"/>
      <text x="638.1725" font-size="8px" y="434.7317" clip-path="url(#clipPath2)" font-family="'Open Sans'" stroke="none" xml:space="preserve">opslag</text>
      <path fill="none" d="M634.1725 378.0123 L634.1725 312.3431" clip-path="url(#clipPath2)"/>
      <path d="M634.1725 308.3431 L628.1725 320.3431 L634.1725 308.3431 L640.1725 320.3431 Z" clip-path="url(#clipPath2)" stroke="none"/>
      <path fill="none" stroke-miterlimit="10" d="M634.1725 308.3431 L628.1725 320.3431 L634.1725 308.3431 L640.1725 320.3431 Z" clip-path="url(#clipPath2)" stroke-linecap="square"/>
      <text x="638.1725" font-size="8px" y="345.7766" clip-path="url(#clipPath2)" font-family="'Open Sans'" stroke="none" xml:space="preserve">opslag</text>
      <path fill="none" d="M489.4506 449.1202 L489.5993 413.0336" clip-path="url(#clipPath2)"/>
      <path d="M489.6158 409.0336 L483.5664 421.0087 L489.6158 409.0336 L495.5663 421.0583 Z" clip-path="url(#clipPath2)" stroke="none"/>
      <path fill="none" stroke-miterlimit="10" d="M489.6158 409.0336 L483.5664 421.0087 L489.6158 409.0336 L495.5663 421.0583 Z" clip-path="url(#clipPath2)" stroke-linecap="square"/>
      <text x="472.7892" font-size="8px" y="434.639" clip-path="url(#clipPath2)" font-family="'Open Sans'" stroke="none" xml:space="preserve">læs</text>
      <path fill="none" d="M612.7211 449.2284 L612.7211 441.0652 L612.0961 437.4937 L610.2211 434.9427 L607.0961 433.4121 L602.7211 432.9019 L525.3295 432.9019 L520.9545 432.2802 L517.8295 430.4153 L515.9545 427.3069 L515.3295 422.9553 L515.3295 413.0086" clip-path="url(#clipPath2)"/>
      <path d="M515.3295 409.0086 L509.3295 421.0086 L515.3295 409.0086 L521.3295 421.0086 Z" clip-path="url(#clipPath2)" stroke="none"/>
      <path fill="none" stroke-miterlimit="10" d="M515.3295 409.0086 L509.3295 421.0086 L515.3295 409.0086 L521.3295 421.0086 Z" clip-path="url(#clipPath2)" stroke-linecap="square"/>
      <text x="519.3295" font-size="8px" y="428.1186" clip-path="url(#clipPath2)" font-family="'Open Sans'" stroke="none" xml:space="preserve">skriv</text>
      <path fill="none" d="M489.4761 378.0123 L488.8452 312.3428" clip-path="url(#clipPath2)"/>
      <path d="M488.8068 308.343 L482.9224 320.4001 L488.8068 308.343 L494.9218 320.2849 Z" clip-path="url(#clipPath2)" stroke="none"/>
      <path fill="none" stroke-miterlimit="10" d="M488.8068 308.343 L482.9224 320.4001 L488.8068 308.343 L494.9218 320.2849 Z" clip-path="url(#clipPath2)" stroke-linecap="square"/>
      <text x="460.6588" font-size="8px" y="345.7766" clip-path="url(#clipPath2)" font-family="'Open Sans'" stroke="none" xml:space="preserve">opslag</text>
      <path fill="none" d="M357.2448 410.23 L357.2448 444.2057" clip-path="url(#clipPath2)"/>
      <path d="M357.2448 448.2057 L363.2448 436.2057 L357.2448 448.2057 L351.2448 436.2057 Z" clip-path="url(#clipPath2)" stroke="none"/>
      <path fill="none" stroke-miterlimit="10" d="M357.2448 448.2057 L363.2448 436.2057 L357.2448 448.2057 L351.2448 436.2057 Z" clip-path="url(#clipPath2)" stroke-linecap="square"/>
      <text x="323.5807" font-size="8px" y="430.9234" clip-path="url(#clipPath2)" font-family="'Open Sans'" stroke="none" xml:space="preserve">opdater</text>
      <path fill="none" d="M380.4747 449.2287 L380.4747 440.827 L381.0997 437.1512 L382.9747 434.5257 L386.0997 432.9503 L390.4747 432.4252 L448.807 432.4252 L453.182 431.818 L456.307 429.9963 L458.182 426.9602 L458.807 422.7096 L458.807 412.994" clip-path="url(#clipPath2)"/>
      <path d="M458.807 408.994 L452.807 420.994 L458.807 408.994 L464.807 420.994 Z" clip-path="url(#clipPath2)" stroke="none"/>
      <path fill="none" stroke-miterlimit="10" d="M458.807 408.994 L452.807 420.994 L458.807 408.994 L464.807 420.994 Z" clip-path="url(#clipPath2)" stroke-linecap="square"/>
    </g>
  </g>
</svg>
